<svg xmlns="http://www.w3.org/2000/svg" xmlns:xlink="http://www.w3.org/1999/xlink" width="1080" zoomAndPan="magnify" viewBox="0 0 810 809.999993" height="1080" preserveAspectRatio="xMidYMid meet" version="1.0"><defs><clipPath id="0b70eb6ec8"><path d="M 256 243 L 553.710938 243 L 553.710938 567 L 256 567 Z M 256 243 " clip-rule="nonzero"/></clipPath></defs><rect x="-81" width="972" fill="#ffffff" y="-80.999999" height="971.999992" fill-opacity="1"/><rect x="-81" width="972" fill="#ffffff" y="-80.999999" height="971.999992" fill-opacity="1"/><rect x="-81" width="972" fill="#ffffff" y="-80.999999" height="971.999992" fill-opacity="1"/><g clip-path="url(#0b70eb6ec8)"><path fill="#231f20" d="M 542.550781 350.058594 C 543.128906 350.082031 542.992188 350.144531 543.039062 349.769531 C 542.460938 349.730469 542.613281 349.667969 542.550781 350.058594 Z M 460.730469 448.664062 L 461.070312 448.867188 L 461.144531 448.589844 Z M 433.679688 448.902344 C 433.832031 448.890625 433.984375 448.878906 434.132812 448.878906 C 433.59375 448.386719 433.792969 448.488281 433.316406 448.664062 C 433.441406 448.738281 433.554688 448.828125 433.679688 448.902344 Z M 383.015625 450.554688 C 382.777344 450.667969 382.550781 450.792969 382.3125 450.917969 C 382.839844 451.109375 382.523438 451.210938 383.480469 450.707031 C 383.332031 450.65625 383.167969 450.605469 383.015625 450.554688 Z M 453.894531 448.890625 C 451.894531 448.613281 450.007812 448.109375 447.199219 448.890625 C 450.105469 448.890625 451.996094 448.890625 453.894531 448.890625 Z M 412.710938 352.085938 C 412.648438 352.0625 412.570312 352.035156 412.507812 352.011719 C 409.953125 352.011719 407.386719 352.011719 404.828125 352.011719 C 404.828125 352.035156 404.828125 352.0625 404.828125 352.085938 C 407.449219 352.085938 410.078125 352.085938 412.710938 352.085938 Z M 350.679688 459.664062 C 350.085938 460.019531 349.066406 460.507812 348.199219 461.191406 C 347.972656 461.367188 348.085938 462.5 348.238281 462.550781 C 351.960938 463.660156 352.136719 463.15625 353.273438 462.183594 C 353.839844 461.695312 353.460938 460.207031 352.753906 460.03125 C 352.265625 459.902344 351.75 459.855469 350.679688 459.664062 Z M 458.1875 451.953125 C 458.1875 451.914062 458.1875 451.863281 458.1875 451.828125 C 454.625 451.828125 451.078125 451.828125 447.527344 451.828125 C 447.527344 451.863281 447.527344 451.914062 447.527344 451.953125 C 451.078125 451.953125 454.625 451.953125 458.1875 451.953125 Z M 371.597656 361.664062 C 371.433594 361.363281 371.207031 360.59375 370.945312 360.582031 C 369.785156 360.515625 368.566406 360.480469 367.496094 360.832031 C 366.613281 361.121094 366.675781 363 367.445312 363.566406 C 368.828125 364.574219 371.273438 363.566406 371.597656 361.664062 Z M 453.191406 362.066406 C 455.207031 362.066406 456.363281 361.121094 456.550781 359.671875 C 456.878906 357.191406 451.378906 357.152344 451.984375 360.417969 C 452.109375 361.097656 452.875 361.664062 453.191406 362.066406 Z M 538.382812 352.175781 C 538.457031 352.125 538.535156 352.085938 538.597656 352.050781 C 537.941406 351.898438 540.183594 351.9375 523.078125 351.9375 C 523.078125 352.011719 523.078125 352.085938 523.078125 352.175781 C 528.175781 352.175781 533.285156 352.175781 538.382812 352.175781 Z M 432.585938 457.609375 C 430.207031 457.597656 429.261719 458.050781 428.921875 459.539062 C 428.757812 460.257812 428.910156 461.351562 429.375 461.84375 C 431.277344 463.847656 435.667969 460.800781 434.257812 458.667969 C 433.855469 458.078125 432.925781 457.824219 432.585938 457.609375 Z M 469.039062 352.90625 C 469.011719 353.007812 468.988281 353.09375 468.976562 353.195312 C 478.792969 353.195312 488.625 353.195312 498.457031 353.195312 C 498.457031 353.09375 498.457031 353.007812 498.457031 352.90625 C 488.636719 352.90625 478.84375 352.90625 469.039062 352.90625 Z M 478.71875 452.632812 C 493.21875 453.527344 511.167969 453.527344 516.605469 452.632812 C 503.492188 452.632812 491.105469 452.632812 478.71875 452.632812 Z M 362.195312 459.816406 C 360.9375 463.207031 363.859375 463.710938 367.507812 463.683594 C 367.683594 463.683594 395.199219 463.257812 395.390625 463.242188 C 398.257812 463.179688 398.761719 462.625 399.78125 458.480469 C 387.070312 458.542969 374.558594 458.984375 362.195312 459.816406 Z M 423.863281 359.144531 C 419.480469 358.726562 427.964844 358.578125 381.355469 359.824219 C 380.660156 359.847656 379.882812 359.8125 379.300781 360.125 C 377.917969 360.84375 377.628906 362.191406 378.960938 363.339844 C 379.96875 364.183594 378.371094 364.4375 418.183594 363.300781 C 421.859375 363.1875 424.996094 362.621094 423.863281 359.144531 Z M 453.757812 368.519531 C 448.824219 367.585938 450.21875 366.679688 437.59375 422.378906 C 437.21875 424.066406 436.625 425.730469 437.105469 427.457031 C 441.371094 427.910156 441.496094 427.859375 442.515625 425.074219 C 443.5 422.402344 453.65625 375.171875 453.921875 373.960938 C 454.285156 372.261719 454.902344 370.535156 453.757812 368.519531 Z M 358.757812 434.082031 C 361.226562 423.941406 369.785156 373.257812 369.734375 371.769531 C 369.636719 368.859375 366.199219 368.921875 365.242188 370.648438 C 364.246094 372.4375 354.339844 427.65625 353.585938 432.507812 C 353.511719 432.949219 353.851562 433.464844 354.039062 434.082031 C 355.460938 434.082031 356.808594 434.082031 358.757812 434.082031 Z M 421.332031 369.792969 C 419.027344 368.871094 418.4375 368.328125 416.285156 368.621094 C 407.675781 369.816406 399.027344 369.023438 390.390625 369.035156 C 378.898438 369.0625 376.796875 367.648438 375.839844 373.6875 C 375.816406 373.875 370.011719 415.898438 367.484375 426.925781 C 367.003906 429.070312 366.753906 431.085938 368.515625 433.164062 C 380.964844 431.839844 393.527344 430.503906 406.617188 429.105469 C 410.15625 409.070312 416.976562 389.992188 421.332031 369.792969 Z M 458.425781 332.96875 C 462.179688 333.539062 462.34375 333.550781 462.933594 331.394531 C 465.867188 320.507812 474.792969 272.847656 475.773438 269.988281 C 477.398438 270.390625 477.144531 271.414062 477.109375 272.207031 C 476.691406 280.144531 476.039062 288.019531 474.226562 295.820312 C 472.449219 303.457031 471.015625 317.242188 469.0625 326.605469 C 468.609375 328.710938 468.207031 330.753906 468.925781 333.097656 C 473.253906 334.332031 474.5 333.613281 514.214844 333.4375 C 546.515625 333.285156 550.089844 334.382812 552.746094 343.832031 C 553.867188 347.800781 553.917969 351.417969 552.230469 355.097656 C 551.3125 357.089844 550.441406 357.707031 548.527344 357.203125 C 542.789062 355.679688 536.9375 356.144531 531.132812 356.195312 C 519.628906 356.308594 466.773438 357.441406 464.910156 357.808594 C 462.304688 358.324219 461.675781 362.042969 465.175781 362.015625 C 552.898438 361.234375 551.347656 356.359375 552.179688 366.164062 C 531.15625 364.6875 501.503906 367.839844 485.402344 366.554688 C 484.28125 366.464844 489.996094 366.390625 464.921875 368.039062 C 461.613281 368.253906 460.945312 368.644531 460.226562 371.910156 C 460.191406 372.097656 449.351562 425.714844 449.3125 425.90625 C 449.023438 427.632812 449.917969 428.777344 451.53125 428.714844 C 470.664062 427.921875 523.871094 430.707031 523.65625 432.433594 C 523.355469 434.902344 527.320312 434.703125 526.5 437.613281 C 525.179688 439.375 522.738281 438.230469 520.03125 439.3125 C 522.699219 439.527344 524.613281 439.667969 527.371094 439.894531 C 525.367188 440.875 524.160156 441.46875 522.535156 442.273438 C 524.585938 442.273438 526.210938 442.273438 527.757812 442.273438 C 529.835938 446.914062 529.773438 447.277344 526.511719 449.761719 C 526.953125 449.972656 527.40625 450.199219 527.859375 450.414062 C 526.640625 456.035156 525.558594 457.257812 520.105469 457.511719 C 506.585938 458.128906 445.460938 457.296875 443.800781 457.699219 C 443.132812 457.875 442.339844 458.695312 442.125 459.375 C 440.894531 463.484375 446.898438 461.90625 456.539062 462.738281 C 460.757812 463.09375 464.910156 462.953125 469.125 462.511719 C 472.210938 462.183594 475.421875 463.066406 478.566406 463.03125 C 488.324219 462.953125 517.097656 462.777344 526.023438 461.859375 C 529.183594 464.871094 526.890625 468.8125 523.027344 468.890625 C 516.695312 468.988281 510.425781 470.0625 504.058594 469.40625 C 499.992188 468.988281 483.125 469.558594 481.929688 469.644531 C 481.046875 469.71875 480.078125 470.3125 479.335938 470.074219 C 474.324219 468.5 469.242188 470.894531 464.191406 469.605469 C 462.40625 469.152344 460.351562 469.820312 458.414062 469.847656 C 443.144531 470.023438 441.898438 469.242188 438.839844 471.496094 C 437.078125 479.472656 434.285156 487.488281 433.351562 495.945312 C 433.265625 496.828125 433.226562 497.734375 432.9375 498.566406 C 430.03125 507.121094 432.484375 502.117188 422.425781 542.796875 C 422.261719 543.476562 422.035156 544.183594 422.0625 544.875 C 422.3125 550.683594 419.707031 555.875 418.449219 561.34375 C 418.109375 562.792969 417.066406 564.066406 416.183594 565.71875 C 414.648438 565.125 413.425781 564.660156 412.207031 564.191406 C 415.933594 551.605469 416.523438 545.328125 421.796875 519.421875 C 432.835938 465.144531 429.261719 485.976562 431.378906 470.777344 C 427.222656 469.632812 426.746094 469.746094 426.027344 472.847656 C 423.105469 485.433594 414.574219 528.265625 412.066406 540.878906 C 409.828125 552.121094 409.953125 556.480469 406.578125 563.964844 C 405.75 565.820312 404.476562 565.527344 402.578125 563.007812 C 401.644531 563.929688 400.75 564.824219 399.84375 565.71875 C 399.242188 565.074219 398.8125 564.609375 398.273438 564.042969 C 394.507812 566.839844 393.96875 567.140625 392.769531 564.332031 C 392.089844 562.742188 390.316406 563.878906 390.015625 562.46875 C 387.460938 562.707031 385.875 561.144531 384.175781 559.164062 C 384.464844 557.109375 384.867188 554.867188 385.09375 552.601562 C 386.992188 534.339844 390.226562 516.269531 393.011719 498.148438 C 396.507812 475.277344 399.242188 472.570312 396.699219 469.621094 C 372.769531 469.621094 373.234375 470.3125 368.414062 469.394531 C 365.191406 468.789062 361.265625 470.023438 360.003906 470.300781 C 358.128906 473.324219 358.546875 476.851562 357.664062 480.027344 C 356.152344 485.433594 349.042969 515.324219 347.769531 523.882812 C 346.878906 529.867188 344.042969 535.234375 341.980469 540.855469 C 339.726562 541.660156 338.015625 540.816406 336.53125 539.507812 C 335.195312 538.335938 335.335938 536.671875 335.636719 534.707031 C 341.691406 531.683594 338.644531 526.3125 347.21875 496.6875 C 347.480469 495.792969 351.421875 471.902344 351.445312 471.710938 C 351.496094 471.421875 351.21875 471.070312 350.929688 470.300781 C 349.671875 470.148438 348.199219 469.972656 346.964844 469.808594 C 345.582031 471.460938 346.664062 468.273438 342.722656 485.964844 C 330.929688 538.953125 331.722656 535.273438 331.597656 535.613281 C 330.1875 539.46875 330.890625 541.019531 324.21875 540.878906 C 323.488281 540.867188 320.894531 542.265625 320.53125 541.800781 C 319.601562 540.589844 318.695312 540.730469 317.347656 541.207031 C 315.394531 541.890625 313.433594 541.773438 312.816406 539.140625 L 308.121094 537.199219 C 305.96875 536.988281 303.300781 534.238281 303.488281 532.085938 C 304.910156 516.320312 307.804688 507.4375 307.929688 506.65625 C 314.199219 467.527344 312.703125 483.355469 314.503906 469.015625 C 311.53125 466.117188 292.75 466.570312 270.507812 461.378906 C 269.453125 461.140625 268.53125 460.28125 267.136719 459.464844 C 268.128906 458.972656 268.582031 458.53125 268.949219 458.582031 C 276.222656 459.777344 283.6875 459.789062 290.773438 462.121094 C 291.945312 462.511719 295.140625 461.628906 296.476562 461.972656 C 301.664062 463.320312 306.988281 461.617188 312.199219 462.878906 C 313.859375 463.28125 315.621094 462.726562 316.527344 460.21875 C 314.679688 460.019531 313.179688 459.777344 311.667969 459.714844 C 278.703125 458.328125 267.589844 455.859375 266.832031 455.769531 C 264.304688 455.480469 261.847656 455.140625 260.917969 452.203125 C 257.605469 451.070312 257.695312 447.894531 256.976562 445.335938 C 256.007812 441.871094 258.574219 440.773438 262.199219 440.636719 C 301.160156 439.113281 283.699219 440.058594 319.875 437.636719 C 323.25 434.285156 320.808594 433.074219 329.066406 399.832031 C 337.183594 367.195312 334.957031 378.574219 336.078125 369.804688 C 335.082031 367.925781 333.585938 368.179688 332.199219 368.140625 C 282.125 366.71875 326.371094 367.75 288.949219 366.363281 C 288.179688 366.339844 287.425781 366.011719 286.15625 365.695312 C 287.878906 364.03125 289.503906 364.160156 290.988281 364.132812 C 340.632812 363.238281 330.738281 363.867188 335.371094 363.90625 C 336.71875 363.90625 337.765625 363.328125 337.675781 361.246094 C 334.867188 360.730469 338.457031 360.628906 318.515625 360.820312 C 282.011719 361.160156 286.355469 360.933594 272.445312 363.769531 C 269.210938 362.46875 267.539062 359.824219 267.296875 356.144531 C 267.183594 354.605469 267.5625 353.320312 268.972656 352.554688 C 274.386719 349.65625 270.660156 350.097656 293.128906 345.292969 C 301.132812 343.59375 299.285156 344.449219 343.628906 339.410156 C 344.132812 338.441406 345.339844 337.117188 345.453125 335.691406 C 345.820312 331.179688 361.640625 275.535156 373.765625 249.371094 C 375.199219 246.285156 378.546875 243.097656 381.894531 243.804688 C 386.375 244.761719 390.453125 250.722656 389.296875 254.011719 C 386.804688 261.078125 372.253906 332.820312 371.699219 336.324219 C 375.074219 337.644531 376.207031 337.230469 376.796875 334.332031 C 381.253906 312.542969 389.121094 262.71875 392.066406 256.429688 C 392.671875 257.234375 393.199219 257.625 393.222656 258.03125 C 393.714844 266.433594 383.570312 318.164062 382.4375 335.820312 C 386.3125 336.828125 382.5625 336.890625 395.554688 335.742188 C 399.503906 335.390625 428.128906 334.417969 428.316406 334.417969 C 430.875 334.570312 432.234375 333.121094 432.976562 330.917969 C 434.4375 326.644531 444.519531 290.820312 451.804688 277.109375 C 457.609375 266.222656 459.988281 255.902344 466.710938 257.097656 C 470.964844 257.855469 474.4375 262.867188 473.15625 268.074219 C 472.375 271.285156 458.804688 329.871094 458.753906 330.058594 C 458.566406 330.902344 458.554688 331.796875 458.425781 332.96875 " fill-opacity="1" fill-rule="nonzero"/></g><path fill="#231f20" d="M 283.097656 366.011719 C 282.203125 366.804688 283.890625 366.453125 275.429688 367.535156 C 276.589844 364.523438 279.132812 365.660156 280.78125 364.925781 C 281.6875 364.535156 282.832031 364.386719 283.097656 366.011719 " fill-opacity="1" fill-rule="nonzero"/></svg>